<svg width="44" height="44" viewBox="0 0 44 44" fill="none" xmlns="http://www.w3.org/2000/svg">
<path d="M28.0866 3.66673C26.892 3.65677 25.713 3.93885 24.6522 4.48842C23.5914 5.03799 22.6809 5.83841 22 6.82006C21.319 5.83841 20.4086 5.03799 19.3478 4.48842C18.287 3.93885 17.108 3.65677 15.9133 3.66673C14.9704 3.64483 14.0324 3.80922 13.1531 4.1505C12.2738 4.49178 11.4705 5.00322 10.7893 5.65552C10.108 6.30782 9.56219 7.08815 9.18307 7.95179C8.80395 8.81543 8.599 9.7454 8.57996 10.6884C8.57996 21.2484 21.9633 27.1884 21.9633 27.1884C21.9633 27.1884 35.3466 21.3401 35.3466 10.7801C35.3395 9.83558 35.1457 8.90182 34.7765 8.03246C34.4073 7.16309 33.8699 6.37526 33.1953 5.71424C32.5206 5.05322 31.722 4.53204 30.8453 4.18066C29.9686 3.82928 29.0311 3.65462 28.0866 3.66673Z" stroke="white" stroke-width="2.5" stroke-miterlimit="10"/>
<path d="M22 27.0967C22 33.7883 17.0683 35.475 21.6517 42.1667" stroke="white" stroke-width="2.5" stroke-miterlimit="10" stroke-linecap="round"/>
<path d="M16.9767 30.4517L22 27.0967L27.0233 30.4517" stroke="white" stroke-width="2.5" stroke-miterlimit="10" stroke-linecap="round"/>
</svg>
