<svg width="12" height="12" viewBox="0 0 12 12" fill="none" xmlns="http://www.w3.org/2000/svg">
<path d="M1.05842 10.2972L0.563441 10.7922L1.55339 11.7821L2.04836 11.2871L1.05842 10.2972ZM11.2872 2.04832C11.5605 1.77495 11.5605 1.33174 11.2872 1.05837C11.0138 0.785004 10.5706 0.785004 10.2972 1.05837L11.2872 2.04832ZM4.1804 1.05837L3.68543 0.563396L2.69548 1.55334L3.19045 2.04832L4.1804 1.05837ZM10.9183 2.2249C11.2892 2.11581 11.5014 1.72671 11.3923 1.35582C11.2832 0.984929 10.8941 0.772702 10.5233 0.881793L10.9183 2.2249ZM10.2615 9.11942L10.7565 9.61439L11.7464 8.62444L11.2514 8.12947L10.2615 9.11942ZM2.04836 11.2871L11.2514 2.08406L10.2615 1.09411L1.05842 10.2972L2.04836 11.2871ZM11.2514 2.08406L11.2872 2.04832L10.2972 1.05837L10.2615 1.09411L11.2514 2.08406ZM3.19045 2.04832C3.76217 2.62004 4.60057 2.84394 5.38823 2.92432C6.19788 3.00694 7.08664 2.95052 7.89176 2.8473C8.70205 2.74341 9.45615 2.58824 10.0056 2.45985C10.2811 2.39548 10.507 2.33741 10.665 2.29515C10.744 2.27402 10.8061 2.25681 10.8491 2.24471C10.8705 2.23866 10.8872 2.23389 10.8989 2.23054C10.9047 2.22886 10.9092 2.22754 10.9125 2.2266C10.9141 2.22612 10.9154 2.22574 10.9164 2.22546C10.9169 2.22532 10.9173 2.2252 10.9176 2.22511C10.9178 2.22506 10.9179 2.22501 10.918 2.22498C10.9182 2.22494 10.9183 2.2249 10.7208 1.55335C10.5233 0.881793 10.5233 0.881766 10.5234 0.881744C10.5234 0.881745 10.5235 0.88173 10.5235 0.881731C10.5235 0.881735 10.5234 0.881762 10.5232 0.881812C10.5228 0.881915 10.5222 0.882111 10.5212 0.882401C10.5192 0.882979 10.5159 0.883929 10.5114 0.88523C10.5024 0.887833 10.4883 0.891842 10.4696 0.897114C10.4322 0.90766 10.3759 0.923244 10.3032 0.942708C10.1576 0.981656 9.94624 1.03602 9.6871 1.09657C9.1673 1.21802 8.46239 1.36268 7.71372 1.45866C6.95988 1.55532 6.18973 1.59884 5.53035 1.53155C4.84897 1.46202 4.4082 1.28617 4.1804 1.05837L3.19045 2.04832ZM10.7565 1.58909C10.1121 1.3156 10.112 1.31578 10.1119 1.31597C10.1119 1.31607 10.1118 1.31628 10.1117 1.31647C10.1116 1.31683 10.1114 1.31728 10.1112 1.31779C10.1107 1.31883 10.1102 1.32017 10.1095 1.3218C10.1081 1.32507 10.1063 1.32953 10.1039 1.33514C10.0993 1.34638 10.0927 1.36226 10.0845 1.38254C10.0681 1.4231 10.045 1.48133 10.0167 1.55531C9.96012 1.70317 9.8827 1.91454 9.797 2.174C9.62619 2.69106 9.41943 3.40825 9.28083 4.19993C9.143 4.98726 9.06725 5.87755 9.17789 6.7308C9.28869 7.5853 9.59365 8.45158 10.2615 9.11942L11.2514 8.12947C10.8711 7.74914 10.652 7.21192 10.5663 6.55077C10.4804 5.88835 10.5357 5.15082 10.6599 4.44136C10.7833 3.73624 10.9696 3.08765 11.1263 2.61313C11.2044 2.3768 11.2744 2.18593 11.3243 2.0555C11.3492 1.99034 11.3691 1.94041 11.3823 1.90759C11.389 1.89119 11.394 1.87908 11.3971 1.8715C11.3987 1.86771 11.3998 1.86505 11.4004 1.86355C11.4007 1.8628 11.4009 1.86234 11.401 1.86218C11.401 1.8621 11.401 1.86209 11.401 1.86216C11.401 1.86219 11.4009 1.8623 11.4009 1.86231C11.4009 1.86244 11.4008 1.86258 10.7565 1.58909Z" fill="#2012BF"/>
</svg>
