<svg width="12" height="12" viewBox="0 0 12 12" fill="none" xmlns="http://www.w3.org/2000/svg">
<path d="M1.05842 10.1423L0.563441 10.6373L1.55339 11.6272L2.04836 11.1322L1.05842 10.1423ZM11.2872 1.89343C11.5605 1.62006 11.5605 1.17685 11.2872 0.903479C11.0138 0.630112 10.5706 0.630112 10.2972 0.903479L11.2872 1.89343ZM4.1804 0.903478L3.68543 0.408504L2.69548 1.39845L3.19045 1.89343L4.1804 0.903478ZM10.9183 2.07001C11.2892 1.96091 11.5014 1.57181 11.3923 1.20093C11.2832 0.830037 10.8941 0.61781 10.5233 0.726901L10.9183 2.07001ZM10.2615 8.96452L10.7565 9.4595L11.7464 8.46955L11.2514 7.97458L10.2615 8.96452ZM2.04836 11.1322L11.2514 1.92917L10.2615 0.939221L1.05842 10.1423L2.04836 11.1322ZM11.2514 1.92917L11.2872 1.89343L10.2972 0.903479L10.2615 0.939221L11.2514 1.92917ZM3.19045 1.89343C3.76217 2.46514 4.60057 2.68905 5.38823 2.76943C6.19788 2.85205 7.08664 2.79563 7.89176 2.6924C8.70205 2.58852 9.45615 2.43335 10.0056 2.30496C10.2811 2.24058 10.507 2.18251 10.665 2.14026C10.744 2.11913 10.8061 2.10192 10.8491 2.08982C10.8705 2.08377 10.8872 2.079 10.8989 2.07565C10.9047 2.07397 10.9092 2.07265 10.9125 2.07171C10.9141 2.07123 10.9154 2.07085 10.9164 2.07057C10.9169 2.07043 10.9173 2.07031 10.9176 2.07021C10.9178 2.07017 10.9179 2.07012 10.918 2.07009C10.9182 2.07005 10.9183 2.07001 10.7208 1.39845C10.5233 0.726901 10.5233 0.726874 10.5234 0.726852C10.5234 0.726853 10.5235 0.726838 10.5235 0.726839C10.5235 0.726843 10.5234 0.72687 10.5232 0.72692C10.5228 0.727023 10.5222 0.727219 10.5212 0.727509C10.5192 0.728087 10.5159 0.729037 10.5114 0.730338C10.5024 0.732941 10.4883 0.73695 10.4696 0.742222C10.4322 0.752768 10.3759 0.768353 10.3032 0.787816C10.1576 0.826764 9.94624 0.881127 9.6871 0.941677C9.1673 1.06313 8.46239 1.20778 7.71372 1.30377C6.95988 1.40042 6.18973 1.44395 5.53035 1.37666C4.84897 1.30713 4.4082 1.13127 4.1804 0.903478L3.19045 1.89343ZM10.7565 1.4342C10.1121 1.1607 10.112 1.16088 10.1119 1.16108C10.1119 1.16117 10.1118 1.16139 10.1117 1.16158C10.1116 1.16194 10.1114 1.16239 10.1112 1.1629C10.1107 1.16394 10.1102 1.16527 10.1095 1.16691C10.1081 1.17018 10.1063 1.17463 10.1039 1.18025C10.0993 1.19148 10.0927 1.20736 10.0845 1.22765C10.0681 1.26821 10.045 1.32644 10.0167 1.40042C9.96012 1.54828 9.8827 1.75965 9.797 2.01911C9.62619 2.53617 9.41943 3.25336 9.28083 4.04504C9.143 4.83237 9.06725 5.72266 9.17789 6.5759C9.28869 7.43041 9.59365 8.29669 10.2615 8.96452L11.2514 7.97458C10.8711 7.59425 10.652 7.05703 10.5663 6.39588C10.4804 5.73346 10.5357 4.99593 10.6599 4.28646C10.7833 3.58135 10.9696 2.93276 11.1263 2.45824C11.2044 2.22191 11.2744 2.03104 11.3243 1.90061C11.3492 1.83544 11.3691 1.78551 11.3823 1.7527C11.389 1.7363 11.394 1.72419 11.3971 1.7166C11.3987 1.71281 11.3998 1.71015 11.4004 1.70866C11.4007 1.70791 11.4009 1.70745 11.401 1.70729C11.401 1.70721 11.401 1.7072 11.401 1.70727C11.401 1.7073 11.4009 1.70741 11.4009 1.70742C11.4009 1.70755 11.4008 1.70769 10.7565 1.4342Z" fill="black"/>
</svg>
