<svg width="42" height="42" viewBox="0 0 42 42" fill="none" xmlns="http://www.w3.org/2000/svg">
<path d="M34.233 12.25C34.6332 9.96665 32.876 7.875 30.558 7.875H11.4413C9.12316 7.875 7.36614 9.96665 7.76623 12.25" stroke="white" stroke-width="2.5"/>
<path d="M30.6248 7.875C30.6745 7.42161 30.6994 7.19486 30.6997 7.00761C30.7037 5.21626 29.3543 3.71112 27.5732 3.51999C27.387 3.5 27.1589 3.5 26.7029 3.5H15.2967C14.8406 3.5 14.6125 3.5 14.4263 3.51999C12.6452 3.71112 11.2959 5.21626 11.2998 7.00759C11.3002 7.19486 11.325 7.42157 11.3747 7.875" stroke="white" stroke-width="2.5"/>
<path d="M37.0886 29.3877C36.4765 33.7293 36.1706 35.9 34.6005 37.2001C33.0304 38.5 30.7146 38.5 26.0831 38.5H15.9169C11.2854 38.5 8.96968 38.5 7.3996 37.2001C5.82951 35.9 5.52346 33.7293 4.91134 29.3877L4.17114 24.1377C3.39059 18.6015 3.00032 15.8334 4.65906 14.0417C6.3178 12.25 9.27077 12.25 15.1767 12.25H26.8233C32.7292 12.25 35.6821 12.25 37.341 14.0417C38.6514 15.4572 38.6829 17.4821 38.2536 21" stroke="white" stroke-width="2.5" stroke-linecap="round"/>
<path d="M25.5171 23.8278C26.4943 24.4336 26.4943 26.0018 25.5171 26.6077L19.6168 30.2653C18.6671 30.854 17.5 30.0879 17.5 28.8755V21.56C17.5 20.3477 18.6671 19.5814 19.6168 20.1701L25.5171 23.8278Z" stroke="white" stroke-width="2.5"/>
</svg>
