<svg width="18" height="19" viewBox="0 0 18 19" fill="none" xmlns="http://www.w3.org/2000/svg">
<path d="M12.6312 12.2204C13.1216 11.8984 13.7657 12.2497 13.7657 12.8352V13.7794C13.7657 14.7089 13.0411 15.7044 12.1701 15.9971L9.83526 16.773C9.42539 16.912 8.75934 16.912 8.35679 16.773L6.02197 15.9971C5.14367 15.7044 4.42639 14.7089 4.42639 13.7794V12.8279C4.42639 12.2497 5.07048 11.8984 5.55354 12.2131L7.06129 13.1939C7.63951 13.5818 8.37143 13.7721 9.10334 13.7721C9.83526 13.7721 10.5672 13.5818 11.1454 13.1939L12.6312 12.2204Z" fill="#030D19"/>
<path d="M14.9367 5.50153L10.5525 2.6251C9.762 2.10544 8.45919 2.10544 7.66872 2.6251L3.26258 5.50153C1.84997 6.41643 1.84997 8.48776 3.26258 9.40997L4.43364 10.1712L7.66872 12.2791C8.45919 12.7987 9.762 12.7987 10.5525 12.2791L13.7656 10.1712L14.7683 9.51244V11.7521C14.7683 12.0522 15.0172 12.301 15.3173 12.301C15.6173 12.301 15.8662 12.0522 15.8662 11.7521V8.15107C16.159 7.2069 15.8589 6.10902 14.9367 5.50153Z" fill="#030D19"/>
</svg>
