<svg width="48" height="48" viewBox="0 0 48 48" fill="none" xmlns="http://www.w3.org/2000/svg">
<path d="M22.7188 4.71826C23.4382 4.44849 24.222 4.41355 24.958 4.61377L25.2969 4.72412L39.2812 9.96826C40.528 10.4357 41.4064 11.5374 41.6064 12.8247L41.6377 13.0845L41.6504 13.4009V24.1118C41.6503 30.5987 38.0936 36.545 32.4199 39.6235L31.8936 39.8979L25.1855 43.2524H25.1846C24.5225 43.5834 23.7567 43.6204 23.0713 43.3638L22.7988 43.2446L16.1064 39.8979C10.3047 36.997 6.57565 31.1571 6.35938 24.7056H6.36035L6.34961 24.106V13.3862C6.34961 11.9685 7.16921 10.6884 8.43359 10.0884L8.73145 9.96338L22.7188 4.71826ZM23.1396 15.3608C23.6133 15.1832 24.1285 15.1569 24.6143 15.2827L24.8701 15.3638L30.46 17.4604C31.2875 17.7708 31.874 18.4973 32.0166 19.3491L32.0391 19.521L32.0498 19.7544V24.0444C32.0498 26.952 30.4836 29.6215 27.9736 31.0454L27.5996 31.2446L24.917 32.5864C24.4132 32.8383 23.8312 32.8701 23.3076 32.6821L23.0713 32.5806L20.4004 31.2446C17.8783 29.9837 16.2155 27.5052 15.9795 24.728L15.9609 24.4585L15.9502 24.0356V19.7544C15.9502 18.8707 16.4245 18.067 17.1719 17.6343L17.3252 17.5532L17.5557 17.4546L23.1396 15.3608ZM28.75 20.3433L28.5225 20.2583L24.123 18.6079L24 18.562L23.877 18.6079L19.4775 20.2583L19.25 20.3433V24.0444C19.25 25.7237 20.136 27.269 21.5625 28.1216L21.5732 28.1274L21.8643 28.2866V28.2876L21.876 28.2935L23.8438 29.2769L24 29.355L24.1562 29.2769L26.124 28.2935C27.626 27.5426 28.6116 26.0591 28.7363 24.4019H28.7373V24.3892L28.75 24.0581V20.3433ZM38.3496 13.144L38.123 13.0581L24.123 7.80811L24 7.76221L23.877 7.80811L9.87695 13.0581L9.65039 13.144V24.1118C9.65047 29.3659 12.5199 34.1838 17.1025 36.6948L17.1084 36.6987L17.5762 36.9438L24 40.1558L30.418 36.9468C34.9706 34.6704 37.953 30.1679 38.3135 25.1411L38.3398 24.6538V24.647L38.3496 24.1187V13.144Z" fill="white" stroke="#2012BF" stroke-width="0.7"/>
</svg>
