<svg width="20" height="20" viewBox="0 0 20 20" fill="none" xmlns="http://www.w3.org/2000/svg">
<path d="M2.9289 17.0711C4.00261 18.1448 5.65008 18.2951 6.88436 17.5218C7.2104 18.9413 8.48157 20 10 20C11.5185 20 12.7897 18.9413 13.1157 17.5217C14.35 18.2949 15.9974 18.1446 17.0711 17.0709C18.1448 15.9973 18.295 14.3499 17.5219 13.1156C18.9414 12.7895 20 11.5184 20 10C20 8.48156 18.9413 7.21039 17.5218 6.88435C18.295 5.65008 18.1447 4.00265 17.071 2.92897C15.9973 1.85528 14.3499 1.70502 13.1156 2.47818C12.7896 1.05868 11.5184 0 10 0C8.48161 0 7.21047 1.05861 6.88439 2.47804C5.65011 1.70486 4.00266 1.85511 2.92897 2.92881C1.85524 4.00253 1.70501 5.65004 2.47827 6.88433C1.05873 7.21034 0 8.48153 0 10C0 11.5184 1.05867 12.7896 2.47816 13.1156C1.70495 14.3499 1.85519 15.9974 2.9289 17.0711Z" fill="#2012BF"/>
</svg>
