<svg width="44" height="44" viewBox="0 0 44 44" fill="none" xmlns="http://www.w3.org/2000/svg">
<path d="M19.9355 1.66748C21.2838 1.6716 22.4655 2.37197 23.1523 3.44287C23.4891 3.20474 23.867 3.0184 24.2969 2.89404H24.2979L28.2549 1.8335V1.83252L28.2578 1.83154L28.2627 1.82959C28.5834 1.74321 28.9195 1.69778 29.2676 1.69775C30.9214 1.69775 32.3302 2.74355 32.875 4.23193L32.9727 4.53467V4.53564L41.5127 36.4136L41.5156 36.4263H41.5146C41.5975 36.7388 41.6416 37.0679 41.6416 37.4058C41.6415 39.058 40.5963 40.4665 39.1094 41.0103L38.8057 41.1069L34.8467 42.1646L34.8477 42.1655C34.8427 42.1669 34.837 42.1671 34.832 42.1685L34.8203 42.1724L34.8193 42.1714C34.5862 42.2341 34.3449 42.2766 34.0967 42.2935L33.8369 42.3022H33.8301C32.1791 42.2996 30.7723 41.2549 30.2275 39.7681L30.1299 39.4644L23.7666 15.7114V38.4995C23.7638 40.6143 22.0504 42.3288 19.9355 42.3315H15.8135C14.7326 42.3288 13.757 41.8766 13.0625 41.1489C12.3705 41.875 11.3952 42.3288 10.3135 42.3315H6.18848C4.07366 42.3288 2.36021 40.6143 2.35742 38.4995V5.49951C2.36039 3.38485 4.07377 1.67124 6.18848 1.66846H10.3135C11.3936 1.66983 12.3681 2.12283 13.0625 2.84814C13.7545 2.12195 14.7315 1.66885 15.8135 1.66748H19.9355ZM4.51855 38.4995C4.51989 39.4207 5.26631 40.1671 6.1875 40.1685H10.3125C11.2335 40.1669 11.9791 39.4205 11.9805 38.4995V34.0815H4.51855V38.4995ZM14.1436 38.4995C14.1449 39.4207 14.8913 40.1671 15.8125 40.1685H19.9346C20.8556 40.167 21.6022 39.4206 21.6035 38.4995V34.0815H14.1436V38.4995ZM31.0752 34.6323L32.2188 38.9019L32.2197 38.9048L32.2217 38.9136L32.2637 39.0435C32.5003 39.6812 33.1143 40.1352 33.834 40.1353C33.9851 40.1353 34.1322 40.1151 34.2598 40.0806L38.2451 39.0151H38.2471L38.2568 39.0122L38.4121 38.9614C38.7641 38.8257 39.0582 38.5719 39.25 38.2417C39.3967 37.9963 39.4805 37.7079 39.4805 37.4009C39.4805 37.3249 39.4762 37.25 39.4668 37.1782L39.4248 36.9731L38.2812 32.7036L31.0752 34.6323ZM25.3809 13.3833L30.5137 32.5444L37.7197 30.6157L32.5859 11.4526L25.3809 13.3833ZM14.1436 12.0806V31.9185H21.6035V12.0796L14.1436 12.0806ZM4.51855 12.0806V31.9185H11.9805V12.0796L4.51855 12.0806ZM29.2725 3.85986C29.1175 3.85986 28.9677 3.88165 28.8389 3.91748H28.8379L24.8564 4.98486H24.8535L24.8418 4.98779L24.8408 4.98682C24.3614 5.12118 23.97 5.46473 23.7646 5.92236V7.35693L24.8184 11.2954L32.0244 9.36475L30.8818 5.09717V5.09521L30.8789 5.08447V5.08545C30.6853 4.37943 30.0397 3.86008 29.2725 3.85986ZM6.1875 3.83154C5.26646 3.83288 4.52014 4.57854 4.51855 5.49951V9.91748H11.9805V5.49951C11.9789 4.57869 11.2333 3.83313 10.3125 3.83154H6.1875ZM15.8125 3.83154C14.8915 3.83288 14.1451 4.57854 14.1436 5.49951V9.91748H21.6035V5.49951C21.6019 4.57863 20.8555 3.83303 19.9346 3.83154H15.8125Z" fill="white" stroke="white" stroke-width="0.1"/>
</svg>
