<svg width="18" height="19" viewBox="0 0 18 19" fill="none" xmlns="http://www.w3.org/2000/svg">
<path d="M15.43 7.06889C14.6615 3.68743 11.7119 2.16504 9.12087 2.16504C9.12087 2.16504 9.12087 2.16504 9.11355 2.16504C6.52988 2.16504 3.57294 3.68011 2.80442 7.06157C1.94808 10.8383 4.26094 14.0367 6.35422 16.0495C7.13006 16.7961 8.12546 17.1693 9.12087 17.1693C10.1163 17.1693 11.1117 16.7961 11.8802 16.0495C13.9735 14.0367 16.2863 10.8456 15.43 7.06889ZM9.12087 10.7358C7.84733 10.7358 6.81533 9.70379 6.81533 8.43025C6.81533 7.15672 7.84733 6.12471 9.12087 6.12471C10.3944 6.12471 11.4264 7.15672 11.4264 8.43025C11.4264 9.70379 10.3944 10.7358 9.12087 10.7358Z" fill="#030D19"/>
</svg>
