<svg width="18" height="19" viewBox="0 0 18 19" fill="none" xmlns="http://www.w3.org/2000/svg">
<path d="M15.7243 5.77081C15.1022 5.08281 14.0629 4.73881 12.5551 4.73881H12.3795V4.70953C12.3795 3.47991 12.3795 1.95752 9.62746 1.95752H8.51495C5.76294 1.95752 5.76294 3.48723 5.76294 4.70953V4.74612H5.58728C4.07221 4.74612 3.04021 5.09013 2.41808 5.77813C1.69348 6.58324 1.71544 7.66647 1.78863 8.40571L1.79595 8.45695L1.85264 9.0522C1.86308 9.16182 1.92212 9.26084 2.01426 9.32114C2.18978 9.436 2.48353 9.62534 2.65961 9.72316C2.76208 9.78904 2.87187 9.84759 2.98165 9.90614C4.23323 10.5941 5.60924 11.0553 7.0072 11.2821C7.07307 11.9701 7.37316 12.7753 8.97606 12.7753C10.579 12.7753 10.8937 11.9775 10.9449 11.2675C12.438 11.026 13.8799 10.5063 15.1827 9.74512C15.2266 9.72316 15.2559 9.7012 15.2925 9.67925C15.5829 9.51513 15.8841 9.31291 16.1587 9.11483C16.2414 9.05515 16.2943 8.96288 16.3056 8.86151L16.3172 8.75703L16.3538 8.41303C16.3611 8.36912 16.3611 8.33252 16.3684 8.28129C16.427 7.54205 16.4123 6.532 15.7243 5.77081ZM9.869 10.7844C9.869 11.5603 9.869 11.6774 8.96874 11.6774C8.06848 11.6774 8.06848 11.5383 8.06848 10.7918V9.86955H9.869V10.7844ZM6.80958 4.73881V4.70953C6.80958 3.46527 6.80958 3.00416 8.51495 3.00416H9.62746C11.3328 3.00416 11.3328 3.47259 11.3328 4.70953V4.74612H6.80958V4.73881Z" fill="#030D19"/>
<path d="M15.5658 10.7145C15.8246 10.5913 16.1227 10.7965 16.0968 11.0819L15.8341 13.9758C15.6804 15.4396 15.0802 16.9327 11.8598 16.9327H6.28257C3.06213 16.9327 2.46196 15.4396 2.30826 13.9831L2.05889 11.24C2.03324 10.9579 2.32451 10.753 2.58261 10.8697C3.41657 11.2471 4.95589 11.9165 5.90678 12.1655C6.02704 12.197 6.12431 12.2831 6.17697 12.3957C6.62122 13.3458 7.58473 13.8514 8.97603 13.8514C10.3536 13.8514 11.3293 13.3263 11.775 12.3739C11.8277 12.2612 11.9251 12.1752 12.0454 12.1435C13.0551 11.8778 14.6936 11.1295 15.5658 10.7145Z" fill="#030D19"/>
</svg>
