<svg width="18" height="19" viewBox="0 0 18 19" fill="none" xmlns="http://www.w3.org/2000/svg">
<path d="M6.54167 4.16501C5.95614 1.63258 2.14285 1.62526 1.55731 4.16501C1.21331 5.6508 2.15749 6.9097 2.97723 7.69285C3.57741 8.25643 4.52158 8.25643 5.12175 7.69285C5.9415 6.9097 6.87835 5.6508 6.54167 4.16501ZM4.07511 5.33608C3.67256 5.33608 3.34319 5.00672 3.34319 4.60416C3.34319 4.20161 3.66524 3.87224 4.06779 3.87224H4.07511C4.48498 3.87224 4.80703 4.20161 4.80703 4.60416C4.80703 5.00672 4.48498 5.33608 4.07511 5.33608Z" fill="#030D19"/>
<path d="M16.0785 12.9482C15.493 10.4158 11.665 10.4085 11.0722 12.9482C10.7282 14.434 11.6724 15.6929 12.4994 16.4761C13.0996 17.0396 14.0511 17.0396 14.6513 16.4761C15.4783 15.6929 16.4225 14.434 16.0785 12.9482ZM13.6046 14.1193C13.2021 14.1193 12.8727 13.7899 12.8727 13.3874C12.8727 12.9848 13.1947 12.6554 13.5973 12.6554H13.6046C14.0072 12.6554 14.3365 12.9848 14.3365 13.3874C14.3365 13.7899 14.0072 14.1193 13.6046 14.1193Z" fill="#030D19"/>
<path d="M8.82521 15.2537H6.86367C6.01465 15.2537 5.27541 14.7413 4.98264 13.9508C4.68256 13.1604 4.90213 12.2894 5.5389 11.7258L11.3869 6.60971C11.7382 6.30231 11.7456 5.88511 11.6431 5.59966C11.5333 5.31422 11.2552 5.00681 10.7867 5.00681H8.82521C8.52512 5.00681 8.27627 4.75796 8.27627 4.45787C8.27627 4.15779 8.52512 3.90894 8.82521 3.90894H10.7867C11.6358 3.90894 12.375 4.42128 12.6678 5.21175C12.9679 6.00222 12.7483 6.8732 12.1115 7.43678L6.2635 12.5529C5.91218 12.8603 5.90486 13.2775 6.00733 13.5629C6.11711 13.8484 6.39524 14.1558 6.86367 14.1558H8.82521C9.12529 14.1558 9.37415 14.4046 9.37415 14.7047C9.37415 15.0048 9.12529 15.2537 8.82521 15.2537Z" fill="#030D19"/>
</svg>
