<svg width="18" height="19" viewBox="0 0 18 19" fill="none" xmlns="http://www.w3.org/2000/svg">
<path d="M9.04513 16.7094C13.0874 16.7094 16.3643 13.4325 16.3643 9.39022C16.3643 5.34795 13.0874 2.07104 9.04513 2.07104C5.00286 2.07104 1.72595 5.34795 1.72595 9.39022C1.72595 13.4325 5.00286 16.7094 9.04513 16.7094Z" stroke="#030D19" stroke-width="1.09788" stroke-linecap="round" stroke-linejoin="round"/>
<path d="M6.11744 2.80273H6.84936C5.42212 7.07713 5.42212 11.7028 6.84936 15.9772H6.11744" stroke="#030D19" stroke-width="1.09788" stroke-linecap="round" stroke-linejoin="round"/>
<path d="M11.2408 2.80298C12.6681 7.07738 12.6681 11.7031 11.2408 15.9775" stroke="#030D19" stroke-width="1.09788" stroke-linecap="round" stroke-linejoin="round"/>
<path d="M2.45789 12.3179V11.5859C6.73228 13.0132 11.358 13.0132 15.6324 11.5859V12.3179" stroke="#030D19" stroke-width="1.09788" stroke-linecap="round" stroke-linejoin="round"/>
<path d="M2.45789 7.19445C6.73228 5.76721 11.358 5.76721 15.6324 7.19445" stroke="#030D19" stroke-width="1.09788" stroke-linecap="round" stroke-linejoin="round"/>
</svg>
