<svg width="349" height="348" viewBox="0 0 349 348" fill="none" xmlns="http://www.w3.org/2000/svg">
<g opacity="0.4">
<path opacity="0.7" d="M220.652 166.457C230.227 160.637 228.35 154.253 217.085 154.628C224.782 146.367 221.403 140.923 210.701 144.114C216.146 134.164 211.264 129.657 201.689 135.666C204.317 124.776 198.497 121.584 190.799 129.845C190.612 118.392 184.04 117.078 178.595 127.217C175.404 116.139 168.645 116.139 166.204 127.404C160.196 117.829 154 119.707 154.375 130.972C146.114 123.274 140.669 126.653 143.861 137.543C133.91 132.286 129.404 136.98 135.412 146.555C124.523 143.927 121.331 149.747 129.592 157.445C118.515 157.82 116.825 164.016 126.588 169.273C116.074 172.465 116.449 179.036 127.339 181.477C117.764 187.297 119.641 193.681 130.906 193.305C123.209 201.566 126.588 207.011 137.29 203.82C131.845 213.77 136.727 218.276 146.302 212.268C143.674 223.158 149.494 226.35 157.192 218.089C157.379 229.542 163.951 230.856 169.396 220.717C172.587 231.795 179.346 231.795 181.787 220.529C187.795 230.105 193.991 228.227 193.616 216.962C201.877 224.66 207.321 221.28 204.13 210.391C214.08 215.648 218.587 210.954 212.578 201.379C223.468 204.007 226.66 198.187 218.399 190.489C229.476 190.114 231.166 183.918 221.403 178.661C231.917 175.281 231.541 168.898 220.652 166.457Z" fill="#2012BF"/>
<path opacity="0.1" d="M168.152 0.500977C172.123 0.46216 176.089 2.73941 179.665 7.14844C183.084 11.3639 186.186 17.5739 188.653 25.7441C192.778 18.2897 197.106 12.8623 201.329 9.43555C205.746 5.85125 210.101 4.41461 213.991 5.23145C217.887 6.04969 221.162 9.09529 223.488 14.1318C225.709 18.9403 227.091 25.6146 227.341 34.0752C233.107 28.0491 238.547 24.0436 243.386 21.9326C248.457 19.7205 252.925 19.566 256.39 21.4346C259.854 23.303 262.18 27.1213 263.127 32.5576C264.031 37.7467 263.688 44.4647 261.852 52.5381C268.989 48.1879 275.301 45.6962 280.545 44.8818C286.036 44.0292 290.419 45.0068 293.3 47.6934C296.182 50.3806 297.448 54.6717 296.941 60.1924C296.458 65.4673 294.351 71.9216 290.418 79.335C298.358 77.0765 305.01 76.3461 310.2 76.9277C315.636 77.5369 319.534 79.5944 321.562 82.9082C323.588 86.2211 323.662 90.6551 321.751 95.835C319.924 100.787 316.263 106.476 310.642 112.66C318.983 112.49 325.666 113.518 330.584 115.462C335.73 117.496 338.998 120.556 340.127 124.331C341.256 128.106 340.201 132.451 337.023 136.96C333.992 141.262 328.996 145.758 321.982 150.151C329.999 152.057 336.164 154.662 340.436 157.691C344.913 160.867 347.363 164.547 347.597 168.404C347.831 172.264 345.836 176.146 341.766 179.7C337.876 183.097 332.048 186.232 324.297 188.832C331.475 192.815 336.627 196.97 339.811 201.023C343.141 205.264 344.353 209.442 343.378 213.186C342.404 216.924 339.288 220.08 334.297 222.365C329.53 224.548 322.998 225.961 314.811 226.343C320.85 232.117 324.864 237.564 326.978 242.409C329.19 247.48 329.344 251.949 327.476 255.414C325.607 258.878 321.789 261.204 316.353 262.15C311.163 263.054 304.445 262.711 296.371 260.875C300.721 268.009 303.213 274.285 304.027 279.485C304.88 284.931 303.903 289.26 301.214 292.104C298.526 294.948 294.237 296.195 288.72 295.717C283.442 295.26 276.982 293.22 269.561 289.416C271.829 297.515 272.565 304.286 271.982 309.564C271.374 315.081 269.318 319.034 266.006 321.1C262.693 323.165 258.257 323.258 253.076 321.356C248.124 319.539 242.433 315.878 236.249 310.257C236.422 318.596 235.431 325.279 233.532 330.195C231.546 335.34 228.543 338.611 224.802 339.741C221.061 340.871 216.734 339.814 212.2 336.639C207.87 333.606 203.301 328.607 198.771 321.586C196.857 329.896 194.175 336.215 191.039 340.524C187.757 345.034 183.939 347.394 179.964 347.434C175.994 347.473 172.027 345.194 168.451 340.785C165.032 336.57 161.929 330.36 159.462 322.189C155.337 329.644 151.01 335.071 146.787 338.498C142.37 342.082 138.015 343.519 134.125 342.702C130.229 341.884 126.953 338.839 124.627 333.802C122.406 328.993 121.024 322.319 120.774 313.857C115.008 319.884 109.569 323.89 104.729 326.001C99.6586 328.213 95.1903 328.368 91.7256 326.499C88.2614 324.63 85.9359 320.812 84.9893 315.376C84.0857 310.187 84.4276 303.469 86.2637 295.396C79.126 299.746 72.8141 302.237 67.5703 303.052C62.0796 303.904 57.6976 302.927 54.8164 300.24C51.9345 297.553 50.6678 293.263 51.1738 287.742C51.6574 282.467 53.7628 276.011 57.6963 268.598C49.7564 270.856 43.1053 271.588 37.915 271.006C32.4797 270.397 28.582 268.34 26.5547 265.026C24.528 261.713 24.4533 257.279 26.3643 252.099C28.191 247.147 31.8517 241.457 37.4727 235.273C29.1319 235.444 22.4487 234.415 17.5312 232.472C12.3853 230.438 9.11699 227.378 7.98828 223.603C6.85971 219.827 7.91411 215.482 11.0918 210.974C14.1236 206.672 19.1186 202.175 26.1328 197.781C18.1155 195.872 11.9501 193.232 7.67773 190.157C3.19966 186.935 0.752042 183.199 0.518555 179.308C0.284834 175.412 2.2786 171.512 6.35156 167.983C10.2382 164.616 16.0569 161.551 23.7949 159.088C16.6296 155.109 11.4844 150.96 8.30469 146.911C4.97415 142.671 3.76335 138.492 4.73828 134.748C5.71206 131.009 8.82705 127.853 13.8184 125.568C18.5853 123.386 25.1167 121.972 33.3037 121.59C27.2652 115.816 23.2512 110.369 21.1377 105.524C18.9257 100.454 18.7713 95.9852 20.6396 92.5205C22.5081 89.0561 26.3273 86.7299 31.7637 85.7832C36.9526 84.8797 43.6702 85.2218 51.7432 87.0576C47.3938 79.9243 44.9024 73.6481 44.0879 68.4482C43.2349 63.0025 44.2126 58.6737 46.9014 55.8291C49.5888 52.9859 53.8782 51.7391 59.3955 52.2168C64.6728 52.6738 71.133 54.7127 78.5537 58.5166C76.2853 50.4186 75.5513 43.6476 76.1338 38.3691C76.7426 32.8528 78.798 28.9003 82.1104 26.835C85.4235 24.7692 89.859 24.6752 95.04 26.5771C99.9921 28.395 105.682 32.0561 111.865 37.6768C111.692 29.3376 112.685 22.6558 114.584 17.7393C116.571 12.5948 119.573 9.32249 123.314 8.19238C127.055 7.06273 131.382 8.11927 135.916 11.2949C140.246 14.3276 144.813 19.3264 149.344 26.3467C151.257 18.0376 153.94 11.7188 157.076 7.40918C160.358 2.89903 164.177 0.539949 168.152 0.500977Z" stroke="#2012BF"/>
<path opacity="0.2" d="M168.944 24.0864C172.402 24.0527 175.845 26.0372 178.94 29.8539C181.879 33.477 184.543 38.7973 186.668 45.7827C190.21 39.4121 193.925 34.7639 197.555 31.8188C201.379 28.716 205.16 27.463 208.547 28.1743C211.94 28.8869 214.783 31.5374 216.797 35.8989C218.706 40.0318 219.895 45.7512 220.124 52.9868C225.066 47.8433 229.733 44.4161 233.892 42.602C238.282 40.6867 242.165 40.5472 245.182 42.1743C248.198 43.8013 250.215 47.1216 251.035 51.8286C251.812 56.2875 251.525 62.0453 249.97 68.9526C256.082 65.2449 261.495 63.1172 266.001 62.4174C270.755 61.6792 274.564 62.5232 277.073 64.8627C279.583 67.203 280.677 70.9333 280.239 75.7133C279.824 80.2467 278.026 85.7811 274.675 92.1284C281.469 90.2111 287.17 89.5924 291.63 90.0922C296.336 90.6197 299.726 92.4031 301.492 95.2895C303.257 98.1749 303.317 102.028 301.662 106.513C300.092 110.769 296.96 115.65 292.162 120.949C299.297 120.818 305.025 121.706 309.252 123.376C313.707 125.138 316.551 127.792 317.534 131.08C318.517 134.367 317.595 138.142 314.844 142.046C312.239 145.742 307.963 149.6 301.974 153.37C308.824 155.013 314.104 157.252 317.774 159.855C321.651 162.604 323.785 165.8 323.988 169.159C324.192 172.521 322.453 175.892 318.929 178.97C315.585 181.89 310.592 184.583 303.966 186.821C310.099 190.24 314.513 193.807 317.249 197.291C320.133 200.964 321.191 204.594 320.342 207.855C319.494 211.111 316.783 213.849 312.462 215.828C308.366 217.703 302.77 218.921 295.769 219.262C300.923 224.212 304.357 228.885 306.174 233.049C308.089 237.44 308.229 241.322 306.602 244.339C304.975 247.356 301.654 249.373 296.947 250.193C292.488 250.969 286.73 250.683 279.822 249.127C283.53 255.236 285.659 260.617 286.359 265.086C287.098 269.802 286.253 273.564 283.911 276.041C281.571 278.518 277.842 279.596 273.065 279.182C268.529 278.789 262.989 277.048 256.634 273.806C258.561 280.738 259.184 286.544 258.684 291.081C258.157 295.857 256.375 299.294 253.49 301.093C250.605 302.892 246.75 302.968 242.265 301.322C238.008 299.759 233.126 296.627 227.827 291.83C227.961 298.963 227.104 304.69 225.473 308.915C223.753 313.37 221.147 316.216 217.889 317.201C214.631 318.185 210.872 317.262 206.946 314.512C203.225 311.906 199.304 307.625 195.417 301.627C193.766 308.732 191.461 314.147 188.766 317.852C185.924 321.757 182.608 323.813 179.146 323.847C175.688 323.881 172.245 321.897 169.149 318.081C166.211 314.457 163.545 309.137 161.421 302.151C157.879 308.521 154.165 313.17 150.535 316.115C146.711 319.218 142.93 320.47 139.543 319.759C136.15 319.047 133.307 316.396 131.293 312.035C129.384 307.902 128.193 302.182 127.965 294.947C123.023 300.09 118.357 303.517 114.198 305.331C109.807 307.247 105.924 307.386 102.907 305.759C99.8907 304.132 97.8743 300.812 97.0547 296.105C96.2782 291.646 96.5636 285.888 98.1191 278.98C92.007 282.688 86.5952 284.817 82.0889 285.517C77.3349 286.255 73.5257 285.41 71.0166 283.071C68.5071 280.731 67.4124 277.001 67.8506 272.221C68.2662 267.688 70.063 262.152 73.4141 255.804C66.6204 257.721 60.92 258.341 56.46 257.841C51.7534 257.314 48.3634 255.53 46.5977 252.644C44.8326 249.759 44.7734 245.906 46.4277 241.421C47.9977 237.166 51.129 232.284 55.9268 226.985C48.792 227.116 43.0644 226.228 38.8379 224.557C34.3822 222.796 31.5385 220.141 30.5557 216.854C29.5728 213.566 30.4945 209.792 33.2461 205.888C35.8512 202.192 40.1265 198.333 46.1162 194.563C39.264 192.916 33.9833 190.647 30.3125 188.005C26.4354 185.215 24.3049 181.972 24.1016 178.583C23.898 175.191 25.6358 171.803 29.1631 168.747C32.5034 165.854 37.4871 163.221 44.0996 161.1C37.9789 157.685 33.5737 154.122 30.8408 150.642C27.9569 146.97 26.8991 143.34 27.748 140.08C28.596 136.823 31.3065 134.084 35.6279 132.106C39.7241 130.231 45.3201 129.013 52.3213 128.671C47.1664 123.722 43.7316 119.048 41.915 114.884C39.9999 110.494 39.8603 106.611 41.4873 103.594C43.1144 100.577 46.4355 98.5603 51.1426 97.7407C55.6016 96.9642 61.3592 97.2507 68.2666 98.8061C64.5595 92.6979 62.4304 87.3159 61.7305 82.8471C60.9921 78.132 61.837 74.3695 64.1787 71.892C66.5192 69.416 70.2477 68.3378 75.0244 68.7514C79.5602 69.1442 85.1003 70.8849 91.4551 74.1264C89.528 67.1949 88.9056 61.39 89.4062 56.853C89.9333 52.077 91.7147 48.6391 94.5996 46.8403C97.4852 45.0411 101.34 44.9652 105.825 46.6118C110.081 48.1741 114.963 51.3057 120.262 56.103C120.128 48.9699 120.985 43.2435 122.617 39.018C124.337 34.5639 126.943 31.7171 130.201 30.7328C133.459 29.7489 137.218 30.6728 141.144 33.4223C144.865 36.0287 148.785 40.3083 152.672 46.3051C154.323 39.2008 156.628 33.7861 159.323 30.0815C162.165 26.176 165.482 24.1203 168.944 24.0864Z" stroke="#2012BF"/>
<path opacity="0.3" d="M169.736 47.6729C172.681 47.644 175.601 49.3338 178.217 52.5586C180.674 55.5884 182.903 60.0178 184.685 65.8174C187.642 60.5321 190.745 56.6649 193.78 54.2021C197.011 51.5808 200.22 50.5116 203.104 51.1172C205.993 51.7242 208.404 53.9797 210.106 57.666C211.703 61.1226 212.704 65.886 212.911 71.8955C217.029 67.6359 220.921 64.7884 224.398 63.2715C228.109 61.6528 231.406 61.5282 233.976 62.9141C236.545 64.2997 238.252 67.1227 238.944 71.1006C239.594 74.8293 239.364 79.6264 238.089 85.3682C243.176 82.3024 247.689 80.5374 251.458 79.9521C255.475 79.3284 258.711 80.0398 260.848 82.0322C262.985 84.0255 263.909 87.1949 263.539 91.2344C263.191 95.0263 261.7 99.6407 258.931 104.923C264.579 103.346 269.33 102.84 273.061 103.258C277.038 103.704 279.921 105.212 281.425 107.671C282.928 110.129 282.972 113.401 281.574 117.19C280.261 120.75 277.657 124.822 273.683 129.236C279.613 129.144 284.385 129.894 287.921 131.291C291.686 132.779 294.104 135.029 294.941 137.829C295.778 140.629 294.99 143.832 292.665 147.132C290.487 150.223 286.93 153.443 281.965 156.589C287.651 157.97 292.046 159.843 295.114 162.02C298.389 164.342 300.206 167.052 300.38 169.913C300.553 172.777 299.07 175.638 296.092 178.239C293.295 180.682 289.138 182.935 283.637 184.81C288.725 187.665 292.399 190.645 294.688 193.56C297.126 196.664 298.03 199.746 297.307 202.524C296.584 205.298 294.278 207.619 290.627 209.29C287.202 210.858 282.542 211.881 276.727 212.181C280.998 216.306 283.853 220.206 285.372 223.689C286.991 227.4 287.115 230.696 285.729 233.266C284.344 235.835 281.521 237.543 277.543 238.235C273.814 238.885 269.017 238.654 263.275 237.379C266.341 242.462 268.106 246.949 268.691 250.687C269.316 254.671 268.604 257.868 266.609 259.979C264.616 262.088 261.448 262.998 257.412 262.648C253.618 262.32 248.997 260.876 243.707 258.196C245.294 263.963 245.806 268.803 245.387 272.599C244.941 276.634 243.434 279.556 240.977 281.088C238.518 282.621 235.245 282.678 231.454 281.287C227.894 279.98 223.821 277.378 219.407 273.403C219.502 279.331 218.779 284.102 217.414 287.637C215.961 291.401 213.752 293.822 210.977 294.66C208.202 295.498 205.011 294.709 201.694 292.386C198.582 290.206 195.309 286.645 192.065 281.672C190.677 287.571 188.749 292.081 186.494 295.18C184.092 298.48 181.278 300.232 178.329 300.261C175.385 300.289 172.465 298.6 169.85 295.375C167.392 292.345 165.163 287.915 163.381 282.114C160.423 287.4 157.32 291.269 154.285 293.732C151.055 296.354 147.847 297.423 144.963 296.817C142.073 296.21 139.662 293.954 137.96 290.268C136.364 286.811 135.362 282.047 135.154 276.037C131.037 280.297 127.144 283.145 123.667 284.662C119.956 286.281 116.66 286.405 114.091 285.02C111.522 283.634 109.814 280.812 109.121 276.834C108.472 273.105 108.701 268.307 109.977 262.565C104.89 265.631 100.377 267.396 96.6084 267.981C92.5912 268.605 89.3557 267.895 87.2188 265.902C85.0811 263.909 84.1571 260.74 84.5273 256.7C84.875 252.908 86.3638 248.293 89.1328 243.011C83.485 244.587 78.7345 245.095 75.0049 244.677C71.0277 244.231 68.1458 242.722 66.6416 240.263C65.138 237.805 65.0933 234.533 66.4912 230.743C67.8042 227.184 70.4066 223.111 74.3809 218.697C68.4522 218.789 63.6805 218.04 60.1455 216.643C56.3801 215.154 53.961 212.904 53.124 210.104C52.2873 207.305 53.0762 204.102 55.4014 200.803C57.5796 197.712 61.1342 194.49 66.0996 191.344C60.4129 189.959 56.0181 188.061 52.9492 185.853C49.6732 183.495 47.8597 180.745 47.6865 177.859C47.5132 174.97 48.9939 172.095 51.9756 169.512C54.7693 167.091 58.9178 164.89 64.4053 163.112C59.3288 160.261 55.6638 157.284 53.3779 154.374C50.9401 151.27 50.0363 148.188 50.7598 145.41C51.482 142.637 53.7874 140.316 57.4385 138.645C60.8634 137.077 65.5236 136.053 71.3389 135.753C67.0675 131.628 64.2127 127.728 62.6934 124.245C61.0747 120.535 60.9511 117.238 62.3369 114.668C63.7226 112.099 66.5449 110.392 70.5225 109.699C74.2509 109.05 79.048 109.279 84.7891 110.554C81.7244 105.471 79.9603 100.984 79.375 97.2471C78.7509 93.2623 79.4623 90.0655 81.457 87.9551C83.4505 85.8462 86.6181 84.9367 90.6543 85.2861C94.4487 85.6147 99.069 87.0575 104.358 89.7373C102.772 83.9713 102.261 79.1315 102.68 75.3359C103.125 71.3005 104.632 68.378 107.09 66.8457C109.548 65.3131 112.822 65.2551 116.612 66.6465C120.172 67.9533 124.244 70.5562 128.658 74.5303C128.563 68.603 129.287 63.8321 130.651 60.2979C132.105 56.5339 134.313 54.1119 137.089 53.2734C139.864 52.4352 143.055 53.2254 146.372 55.5488C149.484 57.7283 152.756 61.2876 155.999 66.2598C157.388 60.3612 159.317 55.8527 161.572 52.7539C163.974 49.4533 166.787 47.7019 169.736 47.6729Z" stroke="#2012BF"/>
<path opacity="0.4" d="M170.528 71.2593C172.96 71.2354 175.357 72.6315 177.492 75.2642C179.469 77.7021 181.26 81.244 182.699 85.8628C185.075 81.6576 187.564 78.5669 190.006 76.5854C192.643 74.4456 195.278 73.56 197.659 74.0601C200.046 74.5614 202.024 76.4219 203.415 79.4331C204.7 82.2149 205.507 86.0259 205.692 90.8149C208.988 87.4339 212.108 85.1613 214.905 83.9409C217.935 82.6192 220.646 82.5097 222.768 83.6538C224.889 84.798 226.288 87.123 226.854 90.3716C227.376 93.3713 227.199 97.2104 226.202 101.791C230.267 99.3637 233.881 97.9587 236.913 97.4878C240.194 96.9784 242.856 97.5561 244.621 99.2017C246.386 100.848 247.139 103.456 246.837 106.755C246.557 109.807 245.371 113.503 243.181 117.722C247.687 116.484 251.489 116.086 254.49 116.422C257.738 116.786 260.113 118.021 261.355 120.052C262.598 122.083 262.627 124.774 261.485 127.869C260.429 130.733 258.35 133.995 255.195 137.527C259.924 137.473 263.744 138.081 266.589 139.206C269.664 140.421 271.657 142.266 272.349 144.578C273.04 146.89 272.385 149.523 270.485 152.217C268.733 154.704 265.893 157.286 261.946 159.809C266.472 160.928 269.984 162.433 272.452 164.183C275.127 166.08 276.627 168.304 276.771 170.667C276.914 173.034 275.688 175.385 273.255 177.509C271.004 179.475 267.679 181.285 263.299 182.797C267.347 185.091 270.283 187.482 272.126 189.829C274.117 192.364 274.868 194.898 274.271 197.193C273.674 199.483 271.773 201.388 268.792 202.752C266.037 204.014 262.309 204.838 257.674 205.096C261.066 208.399 263.346 211.525 264.569 214.329C265.891 217.359 266.001 220.07 264.856 222.192C263.712 224.313 261.387 225.711 258.139 226.277C255.139 226.799 251.299 226.623 246.718 225.625C249.145 229.687 250.551 233.28 251.022 236.288C251.532 239.542 250.954 242.173 249.307 243.917C247.66 245.658 245.053 246.399 241.758 246.114C238.704 245.849 235.002 244.701 230.774 242.58C232.022 247.184 232.425 251.06 232.088 254.116C231.724 257.41 230.491 259.817 228.461 261.083C226.43 262.349 223.738 262.389 220.643 261.252C217.778 260.201 214.514 258.124 210.982 254.969C211.039 259.695 210.453 263.513 209.354 266.357C208.168 269.431 206.357 271.428 204.064 272.121C201.772 272.813 199.15 272.155 196.441 270.258C193.938 268.505 191.313 265.661 188.712 261.708C187.586 266.406 186.036 270.014 184.221 272.508C182.259 275.204 179.948 276.65 177.512 276.674C175.08 276.698 172.683 275.303 170.548 272.67C168.57 270.232 166.78 266.689 165.341 262.069C162.965 266.275 160.476 269.367 158.034 271.349C155.397 273.489 152.763 274.374 150.382 273.875C147.995 273.373 146.017 271.512 144.626 268.5C143.341 265.718 142.532 261.907 142.347 257.118C139.051 260.499 135.933 262.772 133.136 263.993C130.105 265.315 127.394 265.424 125.272 264.28C123.151 263.136 121.753 260.811 121.188 257.562C120.665 254.562 120.841 250.723 121.838 246.142C117.773 248.569 114.159 249.976 111.127 250.447C107.847 250.956 105.185 250.378 103.42 248.733C101.654 247.087 100.901 244.478 101.203 241.179C101.483 238.128 102.669 234.431 104.859 230.21C100.353 231.449 96.5507 231.848 93.5498 231.511C90.3017 231.147 87.9273 229.913 86.6846 227.881C85.4424 225.851 85.4132 223.159 86.5547 220.065C87.6113 217.201 89.6889 213.937 92.8438 210.406C88.1162 210.46 84.2972 209.853 81.4521 208.728C78.377 207.513 76.3836 205.668 75.6924 203.356C75.0012 201.044 75.6555 198.411 77.5547 195.716C79.307 193.23 82.1467 190.647 86.0928 188.124C81.5662 187.001 78.0532 185.476 75.585 183.7C72.91 181.775 71.4125 179.518 71.2695 177.135C71.1263 174.749 72.3511 172.387 74.7871 170.277C77.0352 168.329 80.3514 166.56 84.7188 165.125C80.6824 162.835 77.7536 160.448 75.9141 158.106C73.9225 155.57 73.1718 153.036 73.7695 150.741C74.366 148.45 76.267 146.547 79.248 145.182C82.0031 143.921 85.7308 143.094 90.3652 142.836C86.9733 139.534 84.6934 136.408 83.4707 133.605C82.149 130.575 82.0403 127.865 83.1846 125.743C84.3288 123.621 86.6537 122.222 89.9023 121.657C92.9021 121.134 96.7412 121.31 101.321 122.307C98.8952 118.247 97.4886 114.654 97.0176 111.647C96.5079 108.393 97.0858 105.761 98.7334 104.018C100.38 102.276 102.987 101.534 106.283 101.82C109.337 102.084 113.038 103.233 117.265 105.354C116.017 100.75 115.615 96.8739 115.952 93.8188C116.316 90.524 117.549 88.1179 119.579 86.8521C121.61 85.5858 124.303 85.5449 127.398 86.6812C130.263 87.7327 133.526 89.8099 137.058 92.9644C137.001 88.2385 137.587 84.4207 138.686 81.5767C139.873 78.503 141.684 76.5065 143.977 75.814C146.268 75.1218 148.89 75.7784 151.599 77.6753C154.102 79.4287 156.727 82.2723 159.327 86.2251C160.453 81.5269 162.005 77.9205 163.82 75.4263C165.782 72.7304 168.092 71.2832 170.528 71.2593Z" stroke="#2012BF"/>
<path opacity="0.5" d="M171.321 94.8456C173.24 94.8268 175.114 95.9283 176.769 97.9686C178.265 99.814 179.618 102.469 180.715 105.909C182.507 102.782 184.384 100.468 186.232 98.9686C188.276 97.3103 190.338 96.6074 192.216 97.0018C194.1 97.3975 195.646 98.8639 196.725 101.2C197.697 103.306 198.313 106.165 198.475 109.734C200.948 107.23 203.295 105.534 205.412 104.61C207.762 103.585 209.887 103.49 211.562 104.393C213.236 105.296 214.324 107.124 214.763 109.643C215.158 111.913 215.036 114.794 214.315 118.214C217.359 116.424 220.075 115.379 222.37 115.022C224.914 114.627 227.003 115.072 228.396 116.37C229.789 117.669 230.37 119.718 230.136 122.276C229.924 124.587 229.043 127.365 227.43 130.523C230.796 129.622 233.651 129.332 235.922 129.587C238.441 129.869 240.307 130.831 241.288 132.434C242.269 134.037 242.282 136.148 241.397 138.547C240.598 140.715 239.046 143.17 236.709 145.819C240.236 145.802 243.103 146.269 245.257 147.12C247.642 148.063 249.211 149.503 249.756 151.327C250.301 153.151 249.779 155.213 248.307 157.303C246.981 159.183 244.858 161.128 241.93 163.029C245.296 163.885 247.926 165.023 249.792 166.347C251.865 167.817 253.049 169.556 253.162 171.422C253.275 173.29 252.306 175.13 250.419 176.778C248.714 178.267 246.221 179.636 242.96 180.785C245.969 182.516 248.169 184.319 249.565 186.097C251.111 188.064 251.707 190.05 251.235 191.862C250.765 193.67 249.269 195.156 246.958 196.214C244.873 197.168 242.078 197.798 238.623 198.013C241.137 200.493 242.842 202.846 243.768 204.969C244.793 207.319 244.886 209.444 243.983 211.118C243.08 212.792 241.254 213.881 238.734 214.319C236.464 214.715 233.583 214.592 230.163 213.872C231.952 216.911 232.998 219.612 233.354 221.888C233.75 224.411 233.306 226.477 232.005 227.853C230.706 229.228 228.659 229.801 226.104 229.58C223.792 229.38 221.008 228.525 217.842 226.962C218.752 230.405 219.045 233.318 218.79 235.632C218.508 238.186 217.55 240.078 215.947 241.077C214.344 242.077 212.232 242.099 209.832 241.219C207.663 240.422 205.207 238.871 202.558 236.534C202.577 240.06 202.128 242.925 201.297 245.078C200.376 247.462 198.962 249.033 197.152 249.58C195.343 250.126 193.289 249.603 191.189 248.132C189.295 246.805 187.317 244.678 185.358 241.743C184.495 245.242 183.323 247.947 181.948 249.836C180.427 251.927 178.619 253.069 176.695 253.088C174.777 253.107 172.903 252.005 171.248 249.965C169.751 248.119 168.397 245.464 167.301 242.023C165.508 245.15 163.632 247.466 161.784 248.966C159.741 250.624 157.679 251.326 155.801 250.932C153.917 250.536 152.371 249.069 151.292 246.733C150.319 244.627 149.703 241.768 149.541 238.198C147.067 240.702 144.721 242.4 142.604 243.323C140.254 244.348 138.129 244.443 136.455 243.54C134.781 242.637 133.693 240.81 133.254 238.291C132.859 236.021 132.98 233.139 133.7 229.719C130.657 231.508 127.941 232.555 125.646 232.911C123.103 233.306 121.014 232.862 119.621 231.563C118.228 230.264 117.646 228.216 117.881 225.658C118.093 223.348 118.973 220.569 120.586 217.41C117.22 218.311 114.366 218.601 112.095 218.347C109.576 218.064 107.71 217.104 106.729 215.5C105.748 213.897 105.734 211.786 106.619 209.388C107.419 207.219 108.97 204.763 111.307 202.113C107.78 202.13 104.914 201.665 102.76 200.813C100.375 199.871 98.8062 198.431 98.2607 196.607C97.7154 194.783 98.237 192.721 99.71 190.631C101.036 188.75 103.159 186.804 106.087 184.903C102.719 184.044 100.088 182.891 98.2217 181.548C96.1476 180.055 94.9673 178.291 94.8545 176.411C94.7415 174.527 95.7093 172.679 97.5996 171.041C99.3017 169.566 101.786 168.229 105.035 167.137C102.037 165.41 99.844 163.61 98.4512 161.837C96.9062 159.869 96.3093 157.884 96.7812 156.071C97.2522 154.264 98.7478 152.777 101.059 151.72C103.143 150.765 105.938 150.136 109.393 149.921C106.879 147.441 105.175 145.088 104.249 142.966C103.224 140.615 103.13 138.491 104.033 136.816C104.936 135.142 106.763 134.054 109.282 133.615C111.552 133.22 114.433 133.341 117.853 134.061C116.064 131.022 115.019 128.321 114.662 126.046C114.267 123.522 114.711 121.457 116.012 120.081C117.311 118.706 119.357 118.133 121.912 118.354C124.225 118.555 127.008 119.408 130.173 120.971C129.263 117.528 128.971 114.615 129.227 112.302C129.508 109.747 130.467 107.857 132.069 106.857C133.673 105.858 135.785 105.835 138.185 106.716C140.353 107.512 142.809 109.063 145.458 111.399C145.438 107.874 145.888 105.009 146.72 102.856C147.64 100.473 149.054 98.9011 150.864 98.3544C152.673 97.8079 154.727 98.3309 156.827 99.8016C158.722 101.128 160.699 103.256 162.657 106.19C163.52 102.692 164.694 99.9874 166.068 98.0985C167.59 96.0073 169.398 94.8644 171.321 94.8456Z" stroke="#2012BF"/>
</g>
</svg>
